<?xml version="1.0" encoding="utf-8"?>
<!-- Generator: Adobe Illustrator 28.3.0, SVG Export Plug-In . SVG Version: 6.00 Build 0)  -->
<svg version="1.1" id="Layer_1" xmlns="http://www.w3.org/2000/svg" xmlns:xlink="http://www.w3.org/1999/xlink" x="0px" y="0px"
	 viewBox="0 0 1920 1080" style="enable-background:new 0 0 1920 1080;" xml:space="preserve">
<style type="text/css">
	.st0{fill:#FFFFFF;}
</style>
<g>
	<g>
		<path class="st0" d="M653.5,965.32c0-153.22,0-306,0-459.21c131.65-74.14,263.41-148.33,395.48-222.7
			c7.76,5.06,15.25,9.95,22.49,14.68c0,78.96,0,157.41,0,236.26c-17.67,0-35.05,0-53.06,0c0-59.26,0-118.33,0-178.94
			C912.54,414.55,807.82,473.06,703.03,531.6c0,129.46,0,258.56,0,388.16c104.84,0,209.55,0,314.97,0c0-35.15,0-70.37,0-106.05
			c18.08,0,35.46,0,53.3,0c0,50.41,0,100.78,0,151.61C932.2,965.32,793.16,965.32,653.5,965.32z"/>
		<path class="st0" d="M941.85,167.54c0,42.54,0,83.67,0,125.14c-15.86,9.06-31.58,18.05-48.07,27.47c0-77.64,0-154.42,0-232.32
			c123.67,69.34,246.78,138.35,369.7,207.26c0,223.61,0,446.71,0,670.24c-47.32,0-94.36,0-141.82,0c0-14.86,0-29.57,0-44.99
			c31.39,0,62.61,0,94.2,0c0-199.78,0-398.86,0-598.8C1125.2,270.59,1034.1,219.39,941.85,167.54z"/>
		<path class="st0" d="M867.67,493.02c32.67-18.11,65.69-36.42,99.51-55.17c0,149.9,0,298.97,0,448.48c-33,0-66.04,0-99.51,0
			C867.67,755.35,867.67,624.49,867.67,493.02z"/>
	</g>
</g>
<g>
	<g>
		<path class="st0" d="M646.81,1067.15v-75.6h13.75v75.6H646.81z"/>
		<path class="st0" d="M670.75,1067.15v-75.6h15.23l46.41,55.23v-55.23h13.96v75.6h-15.23l-46.51-55.33v55.33H670.75z"/>
		<path class="st0" d="M758.32,1067.15v-75.6h69.62v13.96h-55.65v16.8h44.73v14.07h-44.73v30.76H758.32z"/>
		<path class="st0" d="M834.02,1067.15v-75.5h60.9c2.66,0,5.11,0.67,7.35,2c2.24,1.33,4.02,3.1,5.35,5.3c1.33,2.21,2,4.64,2,7.3
			v20.37c0,2.66-0.67,5.11-2,7.35c-1.33,2.24-3.12,4.01-5.35,5.3c-2.24,1.3-4.69,1.94-7.35,1.94l-47.04,0.1v25.83H834.02z
			 M849.14,1027.25h45.15c0.35,0,0.66-0.1,0.95-0.31c0.28-0.21,0.42-0.49,0.42-0.84v-19.32c0-0.35-0.14-0.65-0.42-0.89
			c-0.28-0.24-0.6-0.37-0.95-0.37h-45.15c-0.35,0-0.65,0.12-0.89,0.37c-0.25,0.25-0.37,0.54-0.37,0.89v19.32
			c0,0.35,0.12,0.63,0.37,0.84C848.49,1027.14,848.79,1027.25,849.14,1027.25z M894.29,1067.15l-22.78-27.2h18.16l19.74,23.31v3.88
			H894.29z"/>
		<path class="st0" d="M920.86,1006.14c0-2.66,0.66-5.09,2-7.3c1.33-2.21,3.1-3.97,5.3-5.3c2.2-1.33,4.64-1.99,7.3-1.99h46.31
			c2.66,0,5.11,0.67,7.35,1.99c2.24,1.33,4.02,3.1,5.36,5.3c1.33,2.21,1.99,4.64,1.99,7.3v61h-13.96v-25.41h-47.77v25.41h-13.86
			V1006.14z M982.49,1027.88v-21.11c0-0.35-0.14-0.65-0.42-0.89c-0.28-0.24-0.6-0.37-0.95-0.37h-45.15c-0.35,0-0.65,0.12-0.89,0.37
			c-0.25,0.25-0.37,0.54-0.37,0.89v21.11H982.49z"/>
		<path class="st0" d="M1023.02,1067.15c-2.66,0-5.09-0.66-7.3-2c-2.21-1.33-3.97-3.1-5.3-5.3c-1.33-2.21-2-4.64-2-7.3v-46.41
			c0-2.66,0.67-5.09,2-7.3c1.33-2.21,3.1-3.97,5.3-5.3c2.21-1.33,4.64-1.99,7.3-1.99h60.79v13.96h-57.85
			c-1.12,0-2.01,0.31-2.68,0.94c-0.67,0.63-1,1.54-1,2.73v40.32c0,1.12,0.33,2.01,1,2.68c0.67,0.67,1.56,1,2.68,1h57.85v13.96
			H1023.02z"/>
		<path class="st0" d="M1109.12,1067.15c-2.66,0-5.09-0.66-7.3-2c-2.21-1.33-3.97-3.1-5.3-5.3c-1.33-2.21-2-4.64-2-7.3v-46.41
			c0-2.66,0.66-5.09,2-7.3c1.33-2.21,3.1-3.97,5.3-5.3c2.21-1.33,4.64-1.99,7.3-1.99h46.41c2.66,0,5.09,0.67,7.3,1.99
			c2.21,1.33,3.97,3.1,5.3,5.3c1.33,2.21,1.99,4.64,1.99,7.3v46.41c0,2.66-0.67,5.09-1.99,7.3c-1.33,2.21-3.1,3.97-5.3,5.3
			c-2.21,1.33-4.64,2-7.3,2H1109.12z M1109.64,1053.18h45.15c0.35,0,0.66-0.12,0.94-0.37c0.28-0.25,0.42-0.54,0.42-0.89v-45.15
			c0-0.35-0.14-0.65-0.42-0.89c-0.28-0.24-0.6-0.37-0.94-0.37h-45.15c-0.35,0-0.65,0.12-0.89,0.37c-0.25,0.25-0.37,0.54-0.37,0.89
			v45.15c0,0.35,0.12,0.65,0.37,0.89C1109,1053.06,1109.29,1053.18,1109.64,1053.18z"/>
		<path class="st0" d="M1181.67,1067.15v-75.6h15.23l46.41,55.23v-55.23h13.97v75.6h-15.23l-46.51-55.33v55.33H1181.67z"/>
	</g>
</g>
</svg>
