<?xml version="1.0" encoding="utf-8"?>
<!-- Generator: Adobe Illustrator 28.3.0, SVG Export Plug-In . SVG Version: 6.00 Build 0)  -->
<svg version="1.1" id="Layer_1" xmlns="http://www.w3.org/2000/svg" xmlns:xlink="http://www.w3.org/1999/xlink" x="0px" y="0px"
	 viewBox="0 0 841.89 595.28" style="enable-background:new 0 0 841.89 595.28;" xml:space="preserve">
<style type="text/css">
	.st0{display:none;fill:#1C2736;stroke:#000000;stroke-miterlimit:10;}
	.st1{fill:#FFFFFF;}
</style>
<path class="st0" d="M706.54,595.28h-582c-74.75,0-135.34-60.6-135.34-135.34V114.34C-10.8,39.6,49.8-21,124.54-21h582
	c74.75,0,135.34,60.6,135.34,135.34v345.59C841.89,534.68,781.29,595.28,706.54,595.28z"/>
<g>
	<g>
		<path class="st1" d="M281.69,368.35c0-66.52,0-132.84,0-199.35c57.15-32.18,114.35-64.39,171.68-96.68
			c3.37,2.2,6.62,4.32,9.76,6.37c0,34.28,0,68.33,0,102.57c-7.67,0-15.21,0-23.04,0c0-25.73,0-51.37,0-77.68
			c-45.96,25.68-91.42,51.07-136.91,76.49c0,56.2,0,112.25,0,168.5c45.51,0,90.97,0,136.73,0c0-15.26,0-30.55,0-46.04
			c7.85,0,15.39,0,23.14,0c0,21.88,0,43.75,0,65.81C402.68,368.35,342.32,368.35,281.69,368.35z"/>
		<path class="st1" d="M406.87,22.03c0,18.47,0,36.32,0,54.33c-6.88,3.93-13.71,7.83-20.87,11.93c0-33.7,0-67.04,0-100.85
			c53.69,30.1,107.13,60.06,160.49,89.98c0,97.07,0,193.92,0,290.96c-20.54,0-40.96,0-61.57,0c0-6.45,0-12.84,0-19.53
			c13.63,0,27.18,0,40.89,0c0-86.73,0-173.15,0-259.94C486.47,66.76,446.92,44.53,406.87,22.03z"/>
		<path class="st1" d="M374.67,163.32c14.18-7.86,28.52-15.81,43.2-23.95c0,65.07,0,129.79,0,194.69c-14.33,0-28.67,0-43.2,0
			C374.67,277.2,374.67,220.4,374.67,163.32z"/>
	</g>
	<polygon class="st1" points="483.16,514.09 483.16,412.45 569.72,363.71 577.35,368.69 577.35,423.16 560.15,423.16 560.15,387.52 
		499.61,421.34 499.61,498.48 560.07,498.48 560.07,476.1 577.31,476.1 577.31,514.09 	"/>
	<path class="st1" d="M486.16,510.41c0-32.33,0-64.56,0-96.88c27.78-15.64,55.57-31.3,83.44-46.99c1.64,1.07,3.22,2.1,4.74,3.1
		c0,16.66,0,33.21,0,49.85c-3.73,0-7.39,0-11.2,0c0-12.5,0-24.97,0-37.75c-22.34,12.48-44.43,24.82-66.54,37.17
		c0,27.31,0,54.55,0,81.89c22.12,0,44.21,0,66.45,0c0-7.42,0-14.85,0-22.37c3.81,0,7.48,0,11.25,0c0,10.63,0,21.26,0,31.99
		C544.96,510.41,515.63,510.41,486.16,510.41z"/>
	<polygon class="st1" points="70.9,514.07 70.9,404.51 134.71,368.74 134.71,415.36 121.19,407.63 121.19,391.45 84.35,412.16 
		84.35,501.04 99.08,501.04 99.08,514.07 	"/>
	<path class="st1" d="M122.68,387.82c0,6.65,0,13.08,0,19.57c2.48,1.42,4.94,2.82,7.52,4.3c0-12.14,0-24.15,0-36.33
		c-19.34,10.84-38.59,21.63-57.81,32.41c0,34.97,0,69.85,0,104.81c7.4,0,14.76,0,22.18,0c0-2.32,0-4.62,0-7.04
		c-4.91,0-9.79,0-14.73,0c0-31.24,0-62.37,0-93.63C94.01,403.94,108.26,395.93,122.68,387.82z"/>
</g>
<g>
	<g>
		<path class="st1" d="M121.31,514.07v-75.6h13.75v75.6H121.31z"/>
		<path class="st1" d="M145.25,514.07v-75.6h15.23l46.41,55.23v-55.23h13.96v75.6h-15.23l-46.51-55.33v55.33H145.25z"/>
		<path class="st1" d="M232.82,514.07v-75.6h69.62v13.96h-55.65v16.8h44.73v14.07h-44.73v30.76H232.82z"/>
		<path class="st1" d="M308.52,514.07v-75.5h60.9c2.66,0,5.11,0.67,7.35,2c2.24,1.33,4.02,3.1,5.35,5.3c1.33,2.21,2,4.64,2,7.3
			v20.37c0,2.66-0.67,5.11-2,7.35c-1.33,2.24-3.12,4.01-5.35,5.3c-2.24,1.3-4.69,1.94-7.35,1.94l-47.04,0.1v25.83H308.52z
			 M323.64,474.17h45.15c0.35,0,0.66-0.1,0.95-0.31c0.28-0.21,0.42-0.49,0.42-0.84V453.7c0-0.35-0.14-0.65-0.42-0.89
			c-0.28-0.24-0.6-0.37-0.95-0.37h-45.15c-0.35,0-0.65,0.12-0.89,0.37c-0.25,0.25-0.37,0.54-0.37,0.89v19.32
			c0,0.35,0.12,0.63,0.37,0.84C322.99,474.07,323.29,474.17,323.64,474.17z M368.79,514.07l-22.78-27.2h18.16l19.74,23.31v3.88
			H368.79z"/>
		<path class="st1" d="M395.36,453.07c0-2.66,0.66-5.09,2-7.3c1.33-2.21,3.1-3.97,5.3-5.3c2.2-1.33,4.64-1.99,7.3-1.99h46.31
			c2.66,0,5.11,0.67,7.35,1.99c2.24,1.33,4.02,3.1,5.36,5.3c1.33,2.21,1.99,4.64,1.99,7.3v61h-13.96v-25.41h-47.78v25.41h-13.86
			V453.07z M456.99,474.8V453.7c0-0.35-0.14-0.65-0.42-0.89c-0.28-0.24-0.6-0.37-0.95-0.37h-45.15c-0.35,0-0.65,0.12-0.89,0.37
			c-0.25,0.25-0.37,0.54-0.37,0.89v21.11H456.99z"/>
	</g>
</g>
<g>
	<g>
		<path class="st1" d="M603.99,514.07c-2.73,0-5.25-0.68-7.56-2.05c-2.31-1.36-4.15-3.2-5.51-5.51c-1.37-2.31-2.05-4.83-2.05-7.56
			v-45.36c0-2.73,0.68-5.25,2.05-7.56c1.36-2.31,3.2-4.15,5.51-5.51c2.31-1.37,4.83-2.05,7.56-2.05h45.36
			c2.73,0,5.23,0.68,7.51,2.05c2.27,1.37,4.11,3.2,5.51,5.51c1.4,2.31,2.1,4.83,2.1,7.56v45.36c0,2.73-0.7,5.25-2.1,7.56
			c-1.4,2.31-3.24,4.15-5.51,5.51c-2.28,1.37-4.78,2.05-7.51,2.05H603.99z M604.62,498.85h43.89c0.14,0,0.28-0.07,0.42-0.21
			c0.14-0.14,0.21-0.28,0.21-0.42v-43.89c0-0.14-0.07-0.28-0.21-0.42c-0.14-0.14-0.28-0.21-0.42-0.21h-43.89
			c-0.14,0-0.28,0.07-0.42,0.21c-0.14,0.14-0.21,0.28-0.21,0.42v43.89c0,0.14,0.07,0.28,0.21,0.42
			C604.34,498.78,604.48,498.85,604.62,498.85z"/>
		<path class="st1" d="M676.02,514.07v-75.6h16.07l44.21,52.71v-52.71h15.33v75.6h-16.07l-44.42-52.92v52.92H676.02z"/>
	</g>
</g>
</svg>
